<?xml version="1.0" encoding="UTF-8" standalone="no"?>
<!DOCTYPE svg PUBLIC "-//W3C//DTD SVG 1.1//EN" "http://www.w3.org/Graphics/SVG/1.1/DTD/svg11.dtd">
<svg width="100%" height="100%" viewBox="0 0 1080 275" version="1.1" xmlns="http://www.w3.org/2000/svg" xmlns:xlink="http://www.w3.org/1999/xlink" xml:space="preserve" xmlns:serif="http://www.serif.com/" style="fill-rule:evenodd;clip-rule:evenodd;stroke-linejoin:round;stroke-miterlimit:2;">
    <g transform="matrix(1,0,0,1,-3570.88,-4404.67)">
        <g id="Logo-4" serif:id="Logo 4" transform="matrix(1,0,0,0.254053,-1149.12,4404.67)">
            <rect x="4720" y="0" width="1080" height="1080" style="fill:none;"/>
            <clipPath id="_clip1">
                <rect x="4720" y="0" width="1080" height="1080"/>
            </clipPath>
            <g clip-path="url(#_clip1)">
                <g transform="matrix(0.479786,0,0,1.88853,2382.13,-467.459)">
                    <g>
                        <g transform="matrix(3.36111,0,0,3.36111,-12515.2,-1542.82)">
                            <path d="M5246.41,700.006L5173.28,700.015L5201.15,660.011L5225.53,660.008L5211.59,680.01L5260.35,680.004L5246.41,700.006Z" style="fill:rgb(37,43,94);"/>
                        </g>
                        <g transform="matrix(3.36111,0,0,3.36111,-12515.2,-1542.82)">
                            <path d="M5409.67,699.985L5360.48,699.991L5346.16,679.993C5346.16,679.993 5369.04,683.323 5370.76,679.99C5372.47,676.656 5356.44,659.992 5356.44,659.992L5381.03,659.989L5409.67,699.985Z" style="fill:rgb(37,43,94);"/>
                        </g>
                        <g transform="matrix(3.36111,0,0,3.36111,-12515.2,-1542.82)">
                            <path d="M5360.48,699.991L5335.88,699.994L5290.55,636.666L5274.29,660.002L5249.91,660.005L5290.33,602L5360.48,699.991Z" style="fill:rgb(232,76,15);"/>
                        </g>
                        <g transform="matrix(3.36111,0,0,3.36111,-12515.2,-1542.82)">
                            <path d="M5201.15,660.011L5229.03,620.008L5229.43,620.008L5229.23,619.721L5289.89,532.667L5381.03,659.989L5356.44,659.992L5290.11,567.333L5225.53,660.008L5201.15,660.011Z" style="fill:rgb(232,76,15);"/>
                        </g>
                        <g transform="matrix(3.43758,0,0,1.54031,-11158.5,-2167.63)">
                            <path d="M4935.19,1790.35C4933.04,1790.35 4931.07,1789.14 4929.27,1786.73C4927.48,1784.32 4926.05,1781.12 4924.98,1777.14C4923.92,1773.15 4923.38,1768.77 4923.38,1763.99L4923.38,1721.32L4964.88,1721.32L4964.88,1703.14C4964.88,1702.15 4964.72,1701.3 4964.4,1700.58C4964.08,1699.87 4963.7,1699.51 4963.25,1699.51L4923.38,1699.51L4923.38,1675.95L4963.62,1675.95C4965.82,1675.95 4967.82,1677.15 4969.6,1679.56C4971.38,1681.96 4972.8,1685.17 4973.87,1689.17C4974.94,1693.18 4975.48,1697.56 4975.48,1702.31L4975.48,1790.35L4935.19,1790.35ZM4935.57,1766.8L4964.88,1766.8L4964.88,1742.9L4933.94,1742.9L4933.94,1763.16C4933.94,1764.15 4934.1,1765.01 4934.42,1765.72C4934.74,1766.44 4935.12,1766.8 4935.57,1766.8Z" style="fill:rgb(37,43,94);"/>
                        </g>
                        <g transform="matrix(3.43758,0,0,1.54031,-11158.5,-2167.63)">
                            <path d="M4983.13,1790.35L4983.13,1675.95L5047.66,1675.95C5049.86,1675.95 5051.86,1677.16 5053.64,1679.57C5055.43,1681.98 5056.84,1685.18 5057.89,1689.16C5058.94,1693.15 5059.47,1697.53 5059.47,1702.31L5059.47,1790.35L5049.01,1790.35L5049.01,1703.14C5049.01,1702.15 5048.84,1701.3 5048.5,1700.58C5048.17,1699.87 5047.78,1699.51 5047.33,1699.51L5028.32,1699.51C5027.87,1699.51 5027.49,1699.87 5027.17,1700.58C5026.85,1701.3 5026.69,1702.15 5026.69,1703.14L5026.69,1790.35L5016.04,1790.35L5016.04,1703.14C5016.04,1702.15 5015.88,1701.3 5015.56,1700.58C5015.24,1699.87 5014.86,1699.51 5014.41,1699.51L4995.36,1699.51C4994.91,1699.51 4994.53,1699.87 4994.2,1700.58C4993.88,1701.3 4993.72,1702.15 4993.72,1703.14L4993.72,1790.35L4983.13,1790.35Z" style="fill:rgb(37,43,94);"/>
                        </g>
                        <g transform="matrix(3.43758,0,0,1.54031,-11158.5,-2167.63)">
                            <path d="M5069.56,1790.35L5069.56,1638.48L5080.12,1638.48L5080.12,1675.95L5109.84,1675.95C5112,1675.95 5113.97,1677.16 5115.77,1679.57C5117.56,1681.98 5118.99,1685.18 5120.06,1689.16C5121.12,1693.15 5121.65,1697.53 5121.65,1702.31L5121.65,1763.99C5121.65,1768.77 5121.12,1773.15 5120.06,1777.14C5118.99,1781.12 5117.56,1784.32 5115.77,1786.73C5113.97,1789.14 5112,1790.35 5109.84,1790.35L5069.56,1790.35ZM5081.79,1766.8L5109.47,1766.8C5109.92,1766.8 5110.3,1766.44 5110.62,1765.72C5110.94,1765.01 5111.1,1764.15 5111.1,1763.16L5111.1,1703.14C5111.1,1702.15 5110.94,1701.3 5110.62,1700.58C5110.3,1699.87 5109.92,1699.51 5109.47,1699.51L5081.79,1699.51C5081.34,1699.51 5080.95,1699.87 5080.62,1700.58C5080.28,1701.3 5080.12,1702.15 5080.12,1703.14L5080.12,1763.16C5080.12,1764.15 5080.28,1765.01 5080.62,1765.72C5080.95,1766.44 5081.34,1766.8 5081.79,1766.8Z" style="fill:rgb(37,43,94);"/>
                        </g>
                        <g transform="matrix(3.43758,0,0,1.54031,-11158.5,-2167.63)">
                            <path d="M5128.33,1790.35L5128.33,1675.95L5138.89,1675.95L5138.89,1790.35L5128.33,1790.35ZM5128.33,1662.13L5128.33,1638.48L5138.89,1638.48L5138.89,1662.13L5128.33,1662.13Z" style="fill:rgb(37,43,94);"/>
                        </g>
                        <g transform="matrix(3.43758,0,0,1.54031,-11158.5,-2167.63)">
                            <path d="M5159.49,1790.35C5157.29,1790.35 5155.27,1789.11 5153.43,1786.62C5151.6,1784.13 5150.12,1780.84 5149.01,1776.75C5147.89,1772.65 5147.34,1768.14 5147.34,1763.22L5147.34,1758.79L5158.91,1758.79L5158.91,1762.13C5158.91,1762.79 5159.01,1763.35 5159.22,1763.82C5159.43,1764.29 5159.69,1764.53 5159.98,1764.53L5186.71,1764.53C5187.01,1764.53 5187.26,1764.29 5187.47,1763.82C5187.68,1763.35 5187.78,1762.79 5187.78,1762.13L5187.78,1748.52C5187.78,1747.87 5187.68,1747.31 5187.47,1746.84C5187.26,1746.37 5187.01,1746.13 5186.71,1746.13L5159.49,1746.13C5157.29,1746.13 5155.27,1744.89 5153.43,1742.4C5151.6,1739.92 5150.12,1736.62 5149.01,1732.53C5147.89,1728.43 5147.34,1723.92 5147.34,1719L5147.34,1703.08C5147.34,1698.16 5147.89,1693.66 5149.01,1689.56C5150.12,1685.46 5151.6,1682.17 5153.43,1679.68C5155.27,1677.2 5157.29,1675.95 5159.49,1675.95L5187.2,1675.95C5189.47,1675.95 5191.52,1677.2 5193.35,1679.68C5195.19,1682.17 5196.66,1685.46 5197.77,1689.56C5198.89,1693.66 5199.45,1698.16 5199.45,1703.08L5199.45,1707.51L5187.78,1707.51L5187.78,1704.17C5187.78,1703.52 5187.68,1702.95 5187.47,1702.48C5187.26,1702.01 5187.01,1701.78 5186.71,1701.78L5159.98,1701.78C5159.69,1701.78 5159.43,1702.01 5159.22,1702.48C5159.01,1702.95 5158.91,1703.52 5158.91,1704.17L5158.91,1717.78C5158.91,1718.43 5159.01,1719 5159.22,1719.47C5159.43,1719.94 5159.69,1720.17 5159.98,1720.17L5187.2,1720.17C5189.47,1720.17 5191.52,1721.41 5193.35,1723.9C5195.19,1726.39 5196.66,1729.68 5197.77,1733.78C5198.89,1737.87 5199.45,1742.38 5199.45,1747.3L5199.45,1763.22C5199.45,1768.14 5198.89,1772.65 5197.77,1776.75C5196.66,1780.84 5195.19,1784.13 5193.35,1786.62C5191.52,1789.11 5189.47,1790.35 5187.2,1790.35L5159.49,1790.35Z" style="fill:rgb(232,76,15);"/>
                        </g>
                        <g transform="matrix(3.43758,0,0,1.54031,-11158.5,-2167.63)">
                            <path d="M5219.06,1790.35C5216.86,1790.35 5214.84,1789.11 5213,1786.62C5211.16,1784.13 5209.69,1780.84 5208.57,1776.75C5207.46,1772.65 5206.9,1768.14 5206.9,1763.22L5206.9,1703.08C5206.9,1698.16 5207.46,1693.66 5208.57,1689.56C5209.69,1685.46 5211.16,1682.17 5213,1679.68C5214.84,1677.2 5216.86,1675.95 5219.06,1675.95L5246.77,1675.95C5249.03,1675.95 5251.08,1677.19 5252.91,1679.67C5254.74,1682.14 5256.2,1685.44 5257.3,1689.57C5258.4,1693.69 5258.95,1698.2 5258.95,1703.08L5258.95,1746.13L5218.48,1746.13L5218.48,1762.13C5218.48,1762.79 5218.58,1763.35 5218.79,1763.82C5219,1764.29 5219.25,1764.53 5219.55,1764.53L5258.95,1764.53L5258.95,1790.35L5219.06,1790.35ZM5218.48,1722.89L5247.35,1722.89L5247.35,1704.17C5247.35,1703.52 5247.25,1702.95 5247.04,1702.48C5246.82,1702.01 5246.57,1701.78 5246.28,1701.78L5219.55,1701.78C5219.25,1701.78 5219,1702.01 5218.79,1702.48C5218.58,1702.95 5218.48,1703.52 5218.48,1704.17L5218.48,1722.89Z" style="fill:rgb(232,76,15);"/>
                        </g>
                        <g transform="matrix(3.43758,0,0,1.54031,-11158.5,-2167.63)">
                            <path d="M5278.45,1790.35C5276.24,1790.35 5274.23,1789.11 5272.39,1786.62C5270.55,1784.13 5269.08,1780.84 5267.96,1776.75C5266.85,1772.65 5266.29,1768.14 5266.29,1763.22L5266.29,1703.08C5266.29,1698.16 5266.85,1693.66 5267.96,1689.56C5269.08,1685.46 5270.55,1682.17 5272.39,1679.68C5274.23,1677.2 5276.24,1675.95 5278.45,1675.95L5318.23,1675.95L5318.23,1701.78L5278.94,1701.78C5278.64,1701.78 5278.39,1702.01 5278.18,1702.48C5277.97,1702.95 5277.86,1703.52 5277.86,1704.17L5277.86,1762.13C5277.86,1762.79 5277.97,1763.35 5278.18,1763.82C5278.39,1764.29 5278.64,1764.53 5278.94,1764.53L5318.34,1764.53L5318.34,1790.35L5278.45,1790.35Z" style="fill:rgb(232,76,15);"/>
                        </g>
                        <g transform="matrix(2.38405,0,0,2.3735,-6147.3,-3501.98)">
                            <path d="M5016.83,1750.03C5014.96,1747.56 5011.74,1746.4 5008.69,1746.4C5001.52,1746.4 4996.56,1751.62 4996.56,1758.88C4996.56,1764.75 5001.13,1770.96 5008.52,1770.96C5013.84,1770.96 5016.64,1767.82 5017.33,1766.86L5014.67,1764.85C5013.29,1766.8 5011.25,1767.99 5008.59,1767.99C5003.17,1767.99 4999.91,1763.8 4999.91,1758.88C4999.91,1753.57 5003.36,1749.37 5008.59,1749.37C5010.72,1749.37 5012.89,1750.33 5014.21,1752.05L5016.83,1750.03Z" style="fill:rgb(37,43,94);"/>
                        </g>
                        <g transform="matrix(2.38405,0,0,2.3735,-6147.3,-3501.98)">
                            <path d="M5031.82,1770.96C5038.91,1770.96 5043.94,1765.61 5043.94,1758.68C5043.94,1751.75 5038.91,1746.4 5031.82,1746.4C5024.72,1746.4 5019.69,1751.75 5019.69,1758.68C5019.69,1765.61 5024.72,1770.96 5031.82,1770.96ZM5031.82,1767.99C5026.49,1767.99 5023.04,1763.8 5023.04,1758.68C5023.04,1753.57 5026.49,1749.37 5031.82,1749.37C5037.14,1749.37 5040.59,1753.57 5040.59,1758.68C5040.59,1763.8 5037.14,1767.99 5031.82,1767.99Z" style="fill:rgb(37,43,94);"/>
                        </g>
                        <g transform="matrix(2.38405,0,0,2.3735,-6147.3,-3501.98)">
                            <path d="M5048.47,1770.36L5051.63,1770.36L5051.63,1751.16L5051.69,1751.16L5064.64,1770.36L5068.65,1770.36L5068.65,1747L5065.49,1747L5065.49,1766.2L5065.43,1766.2L5052.61,1747L5048.47,1747L5048.47,1770.36Z" style="fill:rgb(37,43,94);"/>
                        </g>
                        <g transform="matrix(2.38405,0,0,2.3735,-6147.3,-3501.98)">
                            <path d="M5072.72,1767.72C5074.3,1769.93 5077.15,1770.96 5080.14,1770.96C5084.61,1770.96 5088.23,1768.25 5088.23,1763.73C5088.23,1755.31 5076.76,1758.85 5076.76,1752.94C5076.76,1751.49 5077.81,1749.37 5081.29,1749.37C5083.1,1749.37 5084.65,1750.2 5085.43,1751.42L5088,1749.08C5086.26,1746.93 5083.82,1746.4 5081.29,1746.4C5075.71,1746.4 5073.41,1750.2 5073.41,1752.94C5073.41,1762.05 5084.88,1758.71 5084.88,1764.09C5084.88,1766.67 5082.31,1767.99 5080.24,1767.99C5078.37,1767.99 5076.43,1767.19 5075.31,1765.48L5072.72,1767.72Z" style="fill:rgb(37,43,94);"/>
                        </g>
                        <g transform="matrix(2.38405,0,0,2.3735,-6147.3,-3501.98)">
                            <path d="M5092.46,1747L5092.46,1761.82C5092.46,1767.23 5096.37,1770.96 5101.47,1770.96C5106.56,1770.96 5110.47,1767.23 5110.47,1761.82L5110.47,1747L5107.31,1747L5107.31,1761.32C5107.31,1764.22 5105.87,1767.99 5101.47,1767.99C5097.06,1767.99 5095.62,1764.22 5095.62,1761.32L5095.62,1747L5092.46,1747Z" style="fill:rgb(37,43,94);"/>
                        </g>
                        <g transform="matrix(2.38405,0,0,2.3735,-6147.3,-3501.98)">
                            <path d="M5116.02,1770.36L5129.85,1770.36L5129.85,1767.39L5119.17,1767.39L5119.17,1747L5116.02,1747L5116.02,1770.36Z" style="fill:rgb(37,43,94);"/>
                        </g>
                        <g transform="matrix(2.38405,0,0,2.3735,-6147.3,-3501.98)">
                            <path d="M5134.91,1770.36L5138.07,1770.36L5138.07,1749.97L5145.56,1749.97L5145.56,1747L5127.42,1747L5127.42,1749.97L5134.91,1749.97L5134.91,1770.36Z" style="fill:rgb(37,43,94);"/>
                        </g>
                        <g transform="matrix(2.38405,0,0,2.3735,-6147.3,-3501.98)">
                            <path d="M5159.59,1770.96C5166.68,1770.96 5171.71,1765.61 5171.71,1758.68C5171.71,1751.75 5166.68,1746.4 5159.59,1746.4C5152.49,1746.4 5147.46,1751.75 5147.46,1758.68C5147.46,1765.61 5152.49,1770.96 5159.59,1770.96ZM5159.59,1767.99C5154.26,1767.99 5150.81,1763.8 5150.81,1758.68C5150.81,1753.57 5154.26,1749.37 5159.59,1749.37C5164.91,1749.37 5168.36,1753.57 5168.36,1758.68C5168.36,1763.8 5164.91,1767.99 5159.59,1767.99Z" style="fill:rgb(37,43,94);"/>
                        </g>
                        <g transform="matrix(2.38405,0,0,2.3735,-6147.3,-3501.98)">
                            <path d="M5176.24,1770.36L5179.4,1770.36L5179.4,1760.07L5182.91,1760.07L5188.82,1770.36L5192.77,1770.36L5186.16,1759.7C5189.68,1759.31 5191.88,1756.5 5191.88,1753.53C5191.88,1750.6 5190.37,1747 5184.42,1747L5176.24,1747L5176.24,1770.36ZM5179.4,1749.77L5183.54,1749.77C5186.03,1749.77 5188.53,1750.36 5188.53,1753.53C5188.53,1756.7 5186.03,1757.29 5183.54,1757.29L5179.4,1757.29L5179.4,1749.77Z" style="fill:rgb(37,43,94);"/>
                        </g>
                        <g transform="matrix(2.38405,0,0,2.3735,-6147.3,-3501.98)">
                            <rect x="5196.32" y="1747" width="3.154" height="23.364" style="fill:rgb(37,43,94);"/>
                        </g>
                        <g transform="matrix(2.38405,0,0,2.3735,-6147.3,-3501.98)">
                            <path d="M5202.49,1770.36L5206.17,1770.36L5208.47,1764.59L5219.54,1764.59L5221.88,1770.36L5225.56,1770.36L5215.6,1747L5212.74,1747L5202.49,1770.36ZM5209.59,1761.82L5213.99,1751.09L5214.06,1751.09L5218.39,1761.82L5209.59,1761.82Z" style="fill:rgb(37,43,94);"/>
                        </g>
                        <g transform="matrix(2.38405,0,0,2.3735,-6147.3,-3501.98)">
                            <path d="M5237.71,1770.36L5253.32,1770.36L5253.32,1767.39L5240.87,1767.39L5240.87,1759.9L5251.9,1759.9L5251.9,1756.93L5240.87,1756.93L5240.87,1749.97L5252.73,1749.97L5252.73,1747L5237.71,1747L5237.71,1770.36Z" style="fill:rgb(37,43,94);"/>
                        </g>
                        <g transform="matrix(2.38405,0,0,2.3735,-6147.3,-3501.98)">
                            <path d="M5266.69,1770.36L5269.84,1770.36L5269.84,1751.16L5269.91,1751.16L5277.76,1770.36L5279.86,1770.36L5287.72,1751.16L5287.78,1751.16L5287.78,1770.36L5290.94,1770.36L5290.94,1747L5286.24,1747L5278.91,1764.69L5278.78,1764.69L5271.39,1747L5266.69,1747L5266.69,1770.36Z" style="fill:rgb(37,43,94);"/>
                        </g>
                        <g transform="matrix(2.38405,0,0,2.3735,-6147.3,-3501.98)">
                            <path d="M5307.36,1770.96C5314.46,1770.96 5319.49,1765.61 5319.49,1758.68C5319.49,1751.75 5314.46,1746.4 5307.36,1746.4C5300.27,1746.4 5295.24,1751.75 5295.24,1758.68C5295.24,1765.61 5300.27,1770.96 5307.36,1770.96ZM5307.36,1767.99C5302.04,1767.99 5298.59,1763.8 5298.59,1758.68C5298.59,1753.57 5302.04,1749.37 5307.36,1749.37C5312.69,1749.37 5316.13,1753.57 5316.13,1758.68C5316.13,1763.8 5312.69,1767.99 5307.36,1767.99Z" style="fill:rgb(37,43,94);"/>
                        </g>
                        <g transform="matrix(2.38405,0,0,2.3735,-6147.3,-3501.98)">
                            <path d="M5324.02,1770.36L5327.17,1770.36L5327.17,1751.16L5327.24,1751.16L5340.18,1770.36L5344.19,1770.36L5344.19,1747L5341.04,1747L5341.04,1766.2L5340.97,1766.2L5328.16,1747L5324.02,1747L5324.02,1770.36Z" style="fill:rgb(37,43,94);"/>
                        </g>
                        <g transform="matrix(2.38405,0,0,2.3735,-6147.3,-3501.98)">
                            <rect x="5350.17" y="1747" width="3.154" height="23.364" style="fill:rgb(37,43,94);"/>
                        </g>
                        <g transform="matrix(2.38405,0,0,2.3735,-6147.3,-3501.98)">
                            <path d="M5364.17,1770.36L5367.32,1770.36L5367.32,1749.97L5374.81,1749.97L5374.81,1747L5356.68,1747L5356.68,1749.97L5364.17,1749.97L5364.17,1770.36Z" style="fill:rgb(37,43,94);"/>
                        </g>
                        <g transform="matrix(2.38405,0,0,2.3735,-6147.3,-3501.98)">
                            <path d="M5388.84,1770.96C5395.94,1770.96 5400.96,1765.61 5400.96,1758.68C5400.96,1751.75 5395.94,1746.4 5388.84,1746.4C5381.74,1746.4 5376.72,1751.75 5376.72,1758.68C5376.72,1765.61 5381.74,1770.96 5388.84,1770.96ZM5388.84,1767.99C5383.52,1767.99 5380.07,1763.8 5380.07,1758.68C5380.07,1753.57 5383.52,1749.37 5388.84,1749.37C5394.16,1749.37 5397.61,1753.57 5397.61,1758.68C5397.61,1763.8 5394.16,1767.99 5388.84,1767.99Z" style="fill:rgb(37,43,94);"/>
                        </g>
                        <g transform="matrix(2.38405,0,0,2.3735,-6147.3,-3501.98)">
                            <path d="M5405.5,1770.36L5408.65,1770.36L5408.65,1760.07L5412.17,1760.07L5418.08,1770.36L5422.02,1770.36L5415.42,1759.7C5418.94,1759.31 5421.14,1756.5 5421.14,1753.53C5421.14,1750.6 5419.62,1747 5413.68,1747L5405.5,1747L5405.5,1770.36ZM5408.65,1749.77L5412.79,1749.77C5415.29,1749.77 5417.78,1750.36 5417.78,1753.53C5417.78,1756.7 5415.29,1757.29 5412.79,1757.29L5408.65,1757.29L5408.65,1749.77Z" style="fill:rgb(37,43,94);"/>
                        </g>
                        <g transform="matrix(2.38405,0,0,2.3735,-6147.3,-3501.98)">
                            <path d="M5422.61,1770.36L5426.29,1770.36L5428.59,1764.59L5439.67,1764.59L5442,1770.36L5445.68,1770.36L5435.72,1747L5432.86,1747L5422.61,1770.36ZM5429.71,1761.82L5434.11,1751.09L5434.18,1751.09L5438.52,1761.82L5429.71,1761.82Z" style="fill:rgb(37,43,94);"/>
                        </g>
                        <g transform="matrix(2.38405,0,0,2.3735,-6147.3,-3501.98)">
                            <path d="M5448.47,1770.36L5451.62,1770.36L5451.62,1751.16L5451.69,1751.16L5459.54,1770.36L5461.65,1770.36L5469.5,1751.16L5469.56,1751.16L5469.56,1770.36L5472.72,1770.36L5472.72,1747L5468.02,1747L5460.69,1764.69L5460.56,1764.69L5453.17,1747L5448.47,1747L5448.47,1770.36Z" style="fill:rgb(37,43,94);"/>
                        </g>
                        <g transform="matrix(2.38405,0,0,2.3735,-6147.3,-3501.98)">
                            <path d="M5478.47,1770.36L5494.07,1770.36L5494.07,1767.39L5481.62,1767.39L5481.62,1759.9L5492.66,1759.9L5492.66,1756.93L5481.62,1756.93L5481.62,1749.97L5493.48,1749.97L5493.48,1747L5478.47,1747L5478.47,1770.36Z" style="fill:rgb(37,43,94);"/>
                        </g>
                        <g transform="matrix(2.38405,0,0,2.3735,-6147.3,-3501.98)">
                            <path d="M5498.54,1770.36L5501.69,1770.36L5501.69,1751.16L5501.76,1751.16L5514.7,1770.36L5518.71,1770.36L5518.71,1747L5515.56,1747L5515.56,1766.2L5515.49,1766.2L5502.68,1747L5498.54,1747L5498.54,1770.36Z" style="fill:rgb(37,43,94);"/>
                        </g>
                        <g transform="matrix(2.38405,0,0,2.3735,-6147.3,-3501.98)">
                            <path d="M5529.55,1770.36L5532.71,1770.36L5532.71,1749.97L5540.2,1749.97L5540.2,1747L5522.06,1747L5522.06,1749.97L5529.55,1749.97L5529.55,1770.36Z" style="fill:rgb(37,43,94);"/>
                        </g>
                        <g transform="matrix(2.38405,0,0,2.3735,-6147.3,-3501.98)">
                            <path d="M5554.23,1770.96C5561.32,1770.96 5566.35,1765.61 5566.35,1758.68C5566.35,1751.75 5561.32,1746.4 5554.23,1746.4C5547.13,1746.4 5542.11,1751.75 5542.11,1758.68C5542.11,1765.61 5547.13,1770.96 5554.23,1770.96ZM5554.23,1767.99C5548.9,1767.99 5545.46,1763.8 5545.46,1758.68C5545.46,1753.57 5548.9,1749.37 5554.23,1749.37C5559.55,1749.37 5563,1753.57 5563,1758.68C5563,1763.8 5559.55,1767.99 5554.23,1767.99Z" style="fill:rgb(37,43,94);"/>
                        </g>
                    </g>
                </g>
            </g>
        </g>
    </g>
</svg>
